# xmcd
#
# Track frame offsets: 
#        150
#        18160
#        34033
#        49755
#        73993
#        91358
#        108730
#        131330
#        147828
#        168430
#        186063
#        190063
#
# Disc length: 2754 seconds
#
# Revision: 1
# Processed by: cddbd v1.5.2PL0 Copyright (c) Steve Scherf et al.
# Submitted via: ExactAudioCopy v1.0b3
#
DISCID=a30ac00c
DTITLE=Sammy Price - King Of Boogie Woogie
DYEAR=1992
DGENRE=Blues
TTITLE0=The King Of Boogie Woogie, Part 1
TTITLE1=The King Of Boogie Woogie, Part 2
TTITLE2=Making Whoopee
TTITLE3=Keeping Out Of Mischief Now
TTITLE4=Bass And Piano Talking
TTITLE5=Please Don't Talk About Me When I'm Gone
TTITLE6=My Blue Heaven
TTITLE7=Saint James Infirmary
TTITLE8=Boogie Woogie French Style
TTITLE9=Baby Won't You Please Come Home
TTITLE10=Trouble In Mind
TTITLE11=Blues In My Heart
EXTD=
EXTT0=
EXTT1=
EXTT2=
EXTT3=
EXTT4=
EXTT5=
EXTT6=
EXTT7=
EXTT8=
EXTT9=
EXTT10=
EXTT11=
PLAYORDER=
